<svg xmlns="http://www.w3.org/2000/svg" width="27.306" height="41.06" viewBox="0 0 27.306 41.06">
  <g id="cell-phone-w" transform="translate(-5.878 4.311) rotate(-9)">
    <path id="Path_335" data-name="Path 335" d="M24.779,0H8.727A2.777,2.777,0,0,0,5.951,2.779v32.6A2.775,2.775,0,0,0,8.727,38.15H24.779a2.777,2.777,0,0,0,2.776-2.776V2.779A2.778,2.778,0,0,0,24.779,0ZM12.792,1.688h7.924c.2,0,.363.3.363.669s-.163.67-.363.67H12.792c-.2,0-.361-.3-.361-.67S12.591,1.688,12.792,1.688Zm3.962,33.72a1.773,1.773,0,1,1,1.77-1.774A1.775,1.775,0,0,1,16.754,35.407Zm8.721-6.074H8.032V4.689H25.475V29.334Z" transform="translate(0)" fill="#fff"/>
  </g>
</svg>
