<svg xmlns="http://www.w3.org/2000/svg" xmlns:xlink="http://www.w3.org/1999/xlink" width="1366" height="253.011" viewBox="0 0 1366 253.011">
  <defs>
    <clipPath id="clip-path">
      <rect id="Rectangle_65" data-name="Rectangle 65" width="1366" height="253.011" fill="#fff"/>
    </clipPath>
    <clipPath id="clip-path-2">
      <rect id="Rectangle_64" data-name="Rectangle 64" width="1366.001" height="253.011" fill="#fff"/>
    </clipPath>
    <clipPath id="clip-path-3">
      <rect id="Rectangle_63" data-name="Rectangle 63" width="1366" height="239.368" fill="#fff"/>
    </clipPath>
  </defs>
  <g id="inner-banner-svg" transform="translate(1366 253.011) rotate(180)">
    <g id="Group_223" data-name="Group 223" clip-path="url(#clip-path)">
      <g id="Group_222" data-name="Group 222">
        <g id="Group_221" data-name="Group 221" clip-path="url(#clip-path-2)">
          <path id="Path_186" data-name="Path 186" d="M0,226.734l3.61,2.294,2.406-1.147H8.423l2.407-1.147,3.309-2.5h4.813l3.008,1.043,3.61-1.043,1.5,2.4h18.35l4.813-1.147,3.91-1.251,2.407,2.4,3.309,2.4,4.211,2.086,3.309.834,3.309-.834,3.61-1.669h3.61l2.406,2.5,2.106,2.294,7.521-2.086,3.609,2.086,1.8-1.251,1.5-.417,1.8,1.669h6.919l4.512,1.043,2.106,1.46h4.512l4.211,1.043h3.309v-5.005h3.309l1.5,1.668h3.309l1.5-1.668,2.407,2.5v1.46l4.512,2.294,5.114-1.46,3.61-2.711V233.2l3.008-1.564,2.106.939,5.114,1.877,4.813.417,3.008-.209,4.512.626h3.008l3.91,1.251,3.008,2.5a12.037,12.037,0,0,1,2.406,2.085l.3.626h3.911l2.106-1.043,1.8-3.128,4.211-1.46,3.309,1.668,4.211.626,3.61,1.251,3.309,1.043,3.008,1.043h4.813l5.114-1.043,1.5-1.877,5.415-.626,2.406,1.251,6.919-1.668,4.211-.417,3.911.834v3.545h12.634L265.319,243v1.251l2.406-2.294,3.008.626,3.008,1.668,1.8-1.46,2.406.208,4.512,2.711,4.211,1.877,2.407-1.043,6.618,2.92,3.008-1.251,3.309-.417,5.415.626,1.5,1.043,4.211,2.085,1.8-.834,4.211-.209v1.043l3.61-1.251,2.406,1.251,6.017,1.46,3.008-1.668,3.911.625,5.114-.834h3.61l1.8-.626,2.707-1.46,1.5-1.668h2.406l3.008,2.294V247.38l2.105-1.46a15.745,15.745,0,0,1,5.114-.625,2.321,2.321,0,0,0,2.707-1.877H370c.9,0,1.8,2.085,1.8,2.085l5.415,1.043,5.415-.417,6.317.834,1.5-1.46,2.106,2.086,2.707,1.043,3.309-1.46,3.008.626,2.407,2.5,1.8-2.711,5.715-.626,2.106,1.251,2.707-1.46,3.61.626,2.406-1.251,5.415,1.46,1.2,1.668,1.5-2.294,4.813-1.668,3.309,1.251,2.106,1.251,2.406-1.251,2.707-.626,2.406.417,4.813-1.251,2.105.834,6.919-.208,2.707,2.085,2.106,1.877,6.317,1.251,5.415,1.251-2.106-3.337-.6-2.711,2.707-.834h3.91l3.008-.417,2.707,1.043,3.61-.208,1.2-1.043,2.106-1.46h13.236l1.8-1.877,1.5-2.711,3.91-2.5,3.911,1.043,3.309-1.46a5.892,5.892,0,0,1,3.008-.834c1.2.208,5.114,1.251,5.114,1.251l4.813-.626,1.8,2.085,3.309-1.043,3.61,2.085h2.707l3.61,1.46,3.911.209,5.114-1.669,2.707,3.546,5.114-1.46,3.911-2.086,3.61,3.546,4.512-.834,3.008,1.043,1.5.417,4.212-1.877,3.008.417,3.309.417v2.5h1.8l3.309-.417,3.609,1.46,2.106,1.251,3.008-1.251,2.106-.209,3.008,1.043,2.406,1.877,2.106,2.086,3.309-.834,2.707-1.043,2.707,2.5v2.294h6.317l3.309-1.251,5.114,1.251h7.22l2.707-.834,2.406-.834,4.512,1.668,5.715-2.086,6.016-.208,2.707,2.294,4.141-2.711,3.078-1.668,3.309-2.294,3.911,2.085,3.91-.208,1.8-1.043,1.8,1.669,3.61.417,2.406-.834,1.8-3.337,2.407,2.711,3.609-3.754,2.407,1.46,1.8-.208,3.61-.626,3.609.626,3.61-1.043,3.309,1.043,1.2.208,4.512.417,3.61-1.043,3.61,2.5,6.317-.626,3.309-.834,2.707-2.085,4.211.626,5.114,1.251,4.211.208,2.106-1.877,3.309.208,2.106-.417,2.707-.209,3.91.834,6.618-3.754,4.512-2.086h5.414l4.512-2.085,7.22-4.015,6.768,1.095,2.031-1.564,2.933-1.564,6.091,1.721,2.482-.938,2.482-1.564,5.415-.626,5.415-2.033,6.092-.938,4.512,2.659,3.835-.626,1.8-1.721,4.286.938,3.835-1.564,4.512.938,2.707-1.408,2.256-2.346h3.835l5.188.939,2.708-.939,2.256-2.19h3.61l3.384,1.251,1.8-3.6h3.835l3.159,2.033,3.384-2.033h4.963l2.256-1.408h8.347l2.482-2.19H931.7l3.61-3.441h2.707v2.5l2.256-2.5,4.287-1.095,3.836-1.564-1.354-4.536,2.482,1.095,1.8-2.972,2.482-.938,2.031,1.721,3.384-1.721,1.8-2.346,2.256.782,1.128-3.128,1.8-1.095h1.354l1.354-2.189,1.354-1.408,2.482-1.877,2.031-1.408,4.512-2.815h4.286l4.061,1.721,2.933,1.095,2.031-2.033,2.933,1.564h2.482l2.031-.156,1.354.626,2.707-.313,2.256,2.033,3.61.938v-1.877l1.128-1.564,3.836.469,2.256,1.721,1.128-.939,1.8-1.095,3.159.156,3.158,1.721,2.256,1.877,3.384-2.033,1.354.156v1.877l3.384-.938,4.738,1.721,3.159,1.564v2.815l2.03,1.721,2.482-1.721,1.8,1.095,2.482.782,3.61.782,1.579.626,2.256,1.877,3.384,2.19v2.815l2.933-.938,2.256,1.095,2.03-.156,2.933.469,2.707,1.095,1.8,1.408h2.707l2.933-1.251,1.579-.469,2.933-1.095,1.579-2.19,1.354-1.564,2.031,1.095v-1.251l2.256-1.095,2.031.626,2.933,1.095,2.482,1.877,1.354,1.564,2.482.313,3.159,1.095,1.354.313,2.933,1.877,2.03,1.408,1.128-.782v-1.408l4.512-.939,1.354-1.095v-1.095l3.159-.313a1.831,1.831,0,0,1,1.354.313,18.032,18.032,0,0,1,2.256,2.815l3.159-.156-1.579-1.877,3.835.313,1.579,2.19,5.189.626,7.22,1.877v-1.408l2.933,1.408,2.482-.469,3.159-.626,1.805,1.251,2.03-.469v-4.223l5.866,1.408,2.03.626,1.354-.626,3.835-.313h2.482l1.8-1.095,3.159-.938,3.835.626,2.031-.313,4.061,1.095h1.8l3.835.156,2.031.782,4.738.782,1.128-.938h2.481l1.579.782,2.031-.313,3.384,1.095,3.61,1.095,4.512.626,2.031.313,2.031.938,2.707.469,3.61-.156,2.707-.157,1.579-1.095,2.031-.156,3.158-1.095,1.128-.156,2.031.156,1.354.469,3.384.156,1.8-1.408,3.159-.626,2.03-.626,1.579-1.408,2.482-1.095h2.707l1.579-1.408,4.738.938,1.579-1.564,1.8-1.564,2.933-.782,2.708,1.564,3.384.626,2.933,1.095,3.159.469,3.159-.156,2.933-.782h3.384l1.128-.782,1.8-1.251,2.03.156h4.738l2.482,1.564h4.061l2.707-1.095,2.482-.156,2.482-1.251h3.384l2.256-.626,2.933.156,2.482.469v1.095l3.158.156a13.567,13.567,0,0,0,4.287-.782l1.805-.626,1.354-.938V201.4l1.8-1.408v-4.536l2.482-.156,2.256-.313,1.805,1.721,2.256.313,1.128,2.033v1.095l1.2.626,1.5.521,1.2.938v.417l1.5,1.147,1.053.1,2.106.313V0H0Z" transform="translate(0 0)" fill="#fff"/>
          <g id="Group_220" data-name="Group 220" transform="translate(0 13.643)" opacity="0.21">
            <g id="Group_219" data-name="Group 219">
              <g id="Group_218" data-name="Group 218" clip-path="url(#clip-path-3)">
                <path id="Path_187" data-name="Path 187" d="M0,225.632H2.584l1.292.7,1.436,1.394,1.435.8H8.04l1.723-.6h1.723l2.3.6s2.3-.6,2.3-.9,1.436.9,1.436.9l1.723.9,3.015-.8H23.26l2.872.8.718-2.29L29,228.219l2.584.6,2.872.6,3.3,1.493h5.6v-1.692l-2.441-2.389s1.579-.8,2.441-.4a4.7,4.7,0,0,1,1.579,1.842l1.292,1.145,2.728-.4,2.154.6,2.584,1.294,1.867-.8,3.733-.8.574,1.593.718,2.887,2.01,2.688,2.728-.9,1.436-.4,1.723-1.194,1.579-.9,1.436-.7,2.3.4,2.728-.2,2.872.5,3.3-.5.862-1.543,3.159-.946,3.3-.4,1.005-1,1.149-.4,2.584-1.294,2.441,1.194v1.394l3.3-.5,4.164,1.941.862,1.543,2.441-1.095v-.448l2.01-.647h1.579l2.728-.4,1.867-.5,2.01-1.194v-1.394l2.728-.8,2.3.1,3.159,1.294,1.579.5,2.154.3,1.436,1.692,1.005,1.045,1.149-.547,3.876-.5a23.292,23.292,0,0,1,2.584,1.045A36.758,36.758,0,0,0,144.3,232.3l2.728,1.692,3.015-1.593s1.866-.8,2.01,0a13.249,13.249,0,0,0,1.292,2.688l2.01,1.394,2.3.5,2.871,1.692,3.446-.7,2.728-.9,2.3-.3v-.9l3.015.4h2.3l2.584.3,4.881.3,1.579-1.593,2.01-.8,3.159,1.493,2.584-.7,1.866-.9,2.441,1.095,1.867-1.294h1.148l1.005-.8,2.154.8,1.867-.8,1.436-1.244,1.723.846.862,1.294,1.436,1.692,2.154,1.394,1.436-.4.861,1.195,1.292.5,2.01.7,1.436-.7-1.436-1.991,3.159,1.394,1.005-1.493.718-1.194,1.149-.6,3.015,1.493,2.584.5,1.436-.8,2.01.9,4.451,1.593-2.441-2.588,2.441.2v-.9l1.866-.3,2.441,1,.574-1.095v-1l2.584.1,3.589-.2,1.149-1.194h3.015l2.01.8.718-.8h3.877l1.292,1.294,3.3.5,2.44-1.792h2.441l1.723-1.294,1.148-.7,1.148-1.394,1.436-1.095h1.723l1.723.6,1.436.2,1.579.2,2.584-2.09,1.436-.9,1.005-.9,2.44.7,1.867-.7h4.594c.431,0,2.872.6,2.872.6l4.451.4-.718-1.394h3.159l1.723-.8h3.733l1.292-.8,1.579-1.394,2.154-.9v-.7l2.584-1.095,1.579-.6,1.723.7h1.292l1.292-.1,1.436,1.394,1.579,1.493,1.866.7.575.9,1.292.7,1.579-.2v.9l2.154.7.862-.9h2.01l1.436,1.991,1.292-.2,2.3.2,1.867.8v1.394h1.579l.861.7v1.195l1.436-.7,1.723.3,1.723.2,1.723,1h1.006l1.866-.3,2.154-1v-.9l1.149.4,1.579-.9h1.579s.718.8,1.005,1.095a7.824,7.824,0,0,0,1.723.8l.718-.8,1.436-.4H366.7l1.292-.7a21.362,21.362,0,0,0,2.584,0,25.424,25.424,0,0,1,4.164.8l1.435,1.294,1.005-1.095H378.9l1.005-.5,2.728,1.294,2.441-.2,3.015-.5,1.292.5,2.011-.2,2.01-1.394a11.31,11.31,0,0,0,1.867,0,4.094,4.094,0,0,1,1.149,0l1.867-.6,2.154.6,2.584,1.294,2.01-.5v-1.195l2.584.9,2.3.1.862-1.493.718-.9,2.441.6,1.723-.8,2.154.6,1.723-.5s.143-.4,1.292-.3a15.817,15.817,0,0,1,3.3,1l1.292.2v-1.593l3.589.4.861-.7V223.74l2.441,1.294,1.723-.4.574.9,3.015-.1,1.292-1.394,1.148,1.593.575.2,2.154.4,2.153.2v-1l1.723-1,1.867-.7v-1.493l1.292.6,1.149-.4,1.292-.6v1.195l3.733.1.862-.8,1.579-.1,2.154-1.294,1.149-1.593,1.867.2h1.292l2.01-.6,2.441-.1,1.723-1.095,2.154.7,1.149.6,2.872-.4.718-.9,2.01-.7,2.584.6v1.991l1.149.5,1.723,1.792v1.194l2.01.7,2.871,1.991.718,1.195,3.733-.3,1.292.9,2.154.6,2.01,1.095,2.441-.2,1.579.5,1.867.7,2.01-1.095,2.01-1v-3.085L512,226.726l1.436,1.493,1.723-.4,2.441,1.095h3.015l1.005,1.195,4.164,1.394v-1.891l1.723-.1,2.154,1.394,1.148-1,2.584-.4,1.867.5,1.867-.5,2.584.1,3.015.9a20.945,20.945,0,0,0,3.589-.7c.431-.3,2.441-1.593,2.441-1.593a10.94,10.94,0,0,0,1.866.5c.431,0,2.872-.5,2.872-.5l4.308.5,2.871-.5v-1.592l1.149-1.493s1.436-.3,2.01.3a7.788,7.788,0,0,0,2.584,1.1L569,228.817l1.866,1.593.862,1,2.154-.7v-.7l2.728.4,2.44,1,1.867,1.195a12.326,12.326,0,0,0,1.723,1.592,12.354,12.354,0,0,0,2.3.3l1.723,1.095,2.01.7.575-2.289L591.4,232.9l1.148-1.294,2.3.3,3.876.1,1.867-1,1.866.7,3.159,1,2.871.6,1.579-.8.862-.7s.862-1.1,1.292-1.1,3.015.7,3.015.7l.574,1.394,2.154,1,3.159.2,3.733.2,1.436-.9v-3.882l1.579-.2,2.154.6,1.292-.3,2.441-.7s.574-1.294,0-1.493-1.148-1.195-1.148-1.195l2.584.2,2.728.7h2.154l2.871.3,3.446-.6h2.728l2.3-.8,2.584.6,2.584.1,3.159-1.692a6.666,6.666,0,0,0,1.579,1.194c.575.2,2.728,1.1,2.728,1.1l2.584.5,1.9-.5,2.263-.2,2.441-.9,1.292-.8,1.866-.5,2.584-1.294,2.154.6s1.435.2,2.01.2a8.7,8.7,0,0,1,2.584.5c.718.3,3.015-.8,3.015-.8l3.3-.9,1.436-.9,2.3-1.493s2.154-1.095,2.44-.8a13.779,13.779,0,0,0,2.01,1.095l2.154-.6h2.154l2.154-2.787,1.436.1,1.436-1.991h3.3l1.148,1.294,1.58.5,2.153-.8,3.159-1h2.728l.574-1.593.575-1.493h2.728l.718-1.692,2.3-1.394a6.173,6.173,0,0,1,2.441-.7,15.758,15.758,0,0,0,2.3-.008l1.867-1.385v-1.692l.574-1.991V202.24l1.579-1.1h2.872l.718,1.1,1.005,1,1.149.5,1.723-.5,3.733.8,3.015-.5,1.867.2,1.436.3,2.3.1,2.3-.4,2.584-.1,2.01.2,1.866.7,1.58.4,1.579.8,1.866.1,2.3.2v.4l1.292.6,2.225,1.095,3.231.6,1.508,1.194,1.938.6,1.292,1.419s1.723-1.12,1.723-.9v1.792s.754,1.195.969,1.419,1.292,1.493,1.292,1.493l1.077.149,2.369,1.12,1.077-.3,2.046-.075,1.293.971v2.663l1.4,1.369,1.831,1.717,1.939.971.753-.971,2.477-1.643,6.354.075,1.076-.971,2.477-.075,2.046-2.314,2.907-.448,2.261-.373,1.723.448,3.231-1.269,2.8-.3,1.508-.971,2.584.3,1.723-1.045,1.831-1.418,1.723-1.269,1.938-.3,3.122.522,1.185,1.568,1.508.672,2.369.672,1.615-1.12,1.615-1.12.862-.373h1.615l4.63.3-1.4,2.016.861-.149,3.015-.224,2.8,1.941,2.62.5,2.3-.7.862,1.294,3.446-.6.862.9,2.871,1.095,3.589.3,2.584,1,3.877-.6,4.595.6-.718-2.389,2.871.2,1.867-.8s1.436.4,1.867.6a10.937,10.937,0,0,0,2.728.3,22.344,22.344,0,0,0,3.3-.8l4.307.8,1.723.1,2.153,1,1.436,1.792a9.826,9.826,0,0,0,1.866.8c.574.1,4.451,1.692,4.451,1.692l2.01,1.394,2.728-.1,1.292.8,1.723,1,1.292-.3s1.292.7,1.723.9l3.015,1.394,2.3-.3h3.733l4.308-1,3.159-.4,1.723-1,1.436-1.792,1.436-1.294,3.589.4,1.292-.5,1.149-1.692,1.005-.8,1.292-1,2.3,1.592,1.149.8,2.872.4.861-.3,1.436-1.493a6.229,6.229,0,0,1,1.723-.9,9.075,9.075,0,0,1,2.01.9l1.436-1.692.718-1.394,2.584-.8,3.015-1.294,2.728.1,2.154-1,1.005.2,1.866-1.692h2.441V210.3l1.723,1.792,1.292,1.294,2.441.3v.9s-.574.9,0,1.194a11.518,11.518,0,0,1,1.436,1l1.723.8,1.292-1.792,2.584-1.593,1.579-.5.574.6,2.728-.3,1.148-.2,1.723.6.862.6,1.292.1h1.867v.8l2.441.1,2.728-1.294,1.436.5,1.579.6,2.441-.2,2.3.6,1.723.4,2.728-.5,2.728-.8,1.723-.1,1.149-1.194.574-1.095,1.149-2.29,1.292-.7,2.01.3,2.441-.7,1.723-.3,2.153.5,1.149-.5,3.445-1.394,1.293-.7h1.867l3.3-1.394,2.441.6,1.579-1.592,2.728.3,2.01.1,2.154-.5,2.584-.2,2.3-.9,1.436-.1,2.441.6,2.01.4,1.148-.2.862-.2,1.292-.8,1.723-.6,2.3.6.862-1.294,1.867.1,1.579,1.194,1.005.7s1.436.1,1.867.1a4.061,4.061,0,0,1,1.148.3l1.149-.3,1.867.8,1.579-.8,1.005-1,1.723-1.891h1.149l1.292.8,1.723.6,1.867,1.493,2.154.9,2.3.9s1.149-.5,1.292-.8a11.586,11.586,0,0,1,1.436-1.394l1.292-.7,2.01-.1,1.723-.5,1.292-.5s1.292-.2,1.723-.2,3.733.4,3.733.4l1.867.2,1.149.6,2.01.1,1.579.4,2.01-.2,2.585-.7,2.584.1,2.871-.4,2.585.2.861.6v-.9h1.867l2.584.324s1.507.821,1.723.6.754-.821.754-.821h1.83l1.508-.074,2.369-.921,1.507-.946.646-.747,1.939-.746,2.153.523,2.8.149a11.516,11.516,0,0,0,1.507.522,18.5,18.5,0,0,1,2.154.9s2.476.6,2.8.747a7.4,7.4,0,0,0,1.831,0l1.83-.523,1.508,1.344,2.261-.747,2.692-.6,2.154.747,1.831.747,1.4-.3,1.938,1.194s1.723-.075,2.262.6a8.716,8.716,0,0,0,2.692,1.419l1.723-.3,1.293.672,1.615,1.194,1.4.6,2.584.971,1.4.821v-.747l1.615-.746.646-1.269,1.292-.224,1.615-.3,1.615-.149,1.4.149.754,1.717,1.184.523.646-1.195.862-.6,1.938.6,1.508-.3.754-.971h1.507l.969.523,1.4-.374.969-.224,1.831.6s.754.3,1.077.448,1.615.6,1.615.6l.754-.149v-1.568l.862-.373,1.077-.9,1.077.523.646.971,1.507.821,1.184.074,2.261.3,2.692.075,1.4-.523.538-.6v-1.792l.538.373.97.672V204.6l.969-.448,1.4-.075.754.747.754-.149,1.4.6,1.831-.224,1.077.149,1.292.075.862.224,1.292.821.754.448,1.077-.075v-1.045s.646-.523.969-.523,3.339.3,3.339.3l2.154-.3.646-.97,1.615-.523h.754l1.292.149,1.939.6,1.4.522,1.938.523,3.123.074v-1.269l.538-.9,1.292-.448.754-.672.754-.149h1.938l1.831,1.045,1.831.522,1.4.075,1.4.821.969.448,1.4.523v.821l1.508-.149,2.045.149,2.154.6,1.4-.224,1.508-.224,1.292.373,1.4-.074,1.938.746,1.938.6.862-.074,1.185.149,1.184-.821v-1.419l1.723.373,1.077-.672s.862-.149,1.508-.3a4.438,4.438,0,0,0,1.292-.6l1.723-.075,2.261.373,1.723-.3,2.8-.373,1.4.373.969.075,1.507.373,1.723-.6,1.4.224,1.507-.522,1.615-1.269,2.154-.6v-1.717l1.508-.074,1.077.523,1.4-.224a15.824,15.824,0,0,0,2.046,0,3.013,3.013,0,0,0,1.723-.672l1.723.6,1.4.448.969.224v.746l1.939.9s1.184-.448,1.507-.224a6.322,6.322,0,0,0,1.723.6,15.983,15.983,0,0,0,2.693-.522H1366V0H0Z" transform="translate(0 0)" fill="#fff"/>
              </g>
            </g>
          </g>
        </g>
      </g>
    </g>
  </g>
</svg>
