<?xml version="1.0" standalone="no"?>
<svg xmlns:xlink="http://www.w3.org/1999/xlink" id="wave" style="transform:rotate(180deg); transition: 0.3s" viewBox="0 0 1440 490" version="1.1" xmlns="http://www.w3.org/2000/svg"><defs><linearGradient id="sw-gradient-0" x1="0" x2="0" y1="1" y2="0"><stop stop-color="rgba(0, 117, 106, 1)" offset="0%"/><stop stop-color="rgba(0, 117, 106, 1)" offset="100%"/></linearGradient></defs><path style="transform:translate(0, 0px); opacity:1" fill="url(#sw-gradient-0)" d="M0,196L48,212.3C96,229,192,261,288,228.7C384,196,480,98,576,89.8C672,82,768,163,864,171.5C960,180,1056,114,1152,89.8C1248,65,1344,82,1440,130.7C1536,180,1632,261,1728,261.3C1824,261,1920,180,2016,171.5C2112,163,2208,229,2304,285.8C2400,343,2496,392,2592,359.3C2688,327,2784,212,2880,196C2976,180,3072,261,3168,261.3C3264,261,3360,180,3456,147C3552,114,3648,131,3744,179.7C3840,229,3936,310,4032,285.8C4128,261,4224,131,4320,106.2C4416,82,4512,163,4608,236.8C4704,310,4800,376,4896,359.3C4992,343,5088,245,5184,228.7C5280,212,5376,278,5472,277.7C5568,278,5664,212,5760,212.3C5856,212,5952,278,6048,294C6144,310,6240,278,6336,228.7C6432,180,6528,114,6624,147C6720,180,6816,310,6864,375.7L6912,441L6912,490L6864,490C6816,490,6720,490,6624,490C6528,490,6432,490,6336,490C6240,490,6144,490,6048,490C5952,490,5856,490,5760,490C5664,490,5568,490,5472,490C5376,490,5280,490,5184,490C5088,490,4992,490,4896,490C4800,490,4704,490,4608,490C4512,490,4416,490,4320,490C4224,490,4128,490,4032,490C3936,490,3840,490,3744,490C3648,490,3552,490,3456,490C3360,490,3264,490,3168,490C3072,490,2976,490,2880,490C2784,490,2688,490,2592,490C2496,490,2400,490,2304,490C2208,490,2112,490,2016,490C1920,490,1824,490,1728,490C1632,490,1536,490,1440,490C1344,490,1248,490,1152,490C1056,490,960,490,864,490C768,490,672,490,576,490C480,490,384,490,288,490C192,490,96,490,48,490L0,490Z"/></svg>